<svg width="648" height="709" viewBox="0 0 648 709" style="fill:none;stroke:none;fill-rule:evenodd;clip-rule:evenodd;stroke-linecap:round;stroke-linejoin:round;stroke-miterlimit:1.5;" version="1.1" xmlns="http://www.w3.org/2000/svg" xmlns:xlink="http://www.w3.org/1999/xlink"><style class="text-font-style fontImports" data-font-family="Roboto">@import url('https://fonts.googleapis.com/css2?family=Roboto:wght@400;700&amp;display=block');</style><g id="items" style="isolation: isolate"><g id="blend" style="mix-blend-mode: normal"><g id="g-root-cp_1_shape-1_4mn63706f47-fill" data-item-order="-367184" transform="translate(35.499969482421875, 103.81640625)"><g id="cp_1_shape-1_4mn63706f47-fill" stroke="none" fill="#8448a0"><g><path d="M 214.000203 304.183594L 45.999903 304.183494C 26.117703 304.183494 10.000003 288.081294 10.000003 268.199194L 10.000003 268.183594L 250.000203 268.183594C 250.000203 288.065794 233.882203 304.183594 214.000203 304.183594ZM 254.600031 28.374594L 250.000031 28.374594L 250.000031 160.183594L 10.000031 160.183594C 10.000052 140.301594 26.117731 124.504594 45.999931 124.504594L 172.000031 124.504594C 213.070031 124.504594 238.000031 94.374494 238.000031 55.034494L 238.000031 28.374494L 233.320031 28.374494C 232.540031 28.374494 232.050031 27.524494 232.440031 26.844494L 243.163031 10.631894C 243.559031 10.032994 244.439031 10.034394 244.833031 10.634594L 255.480031 26.844494C 255.880031 27.524594 255.390031 28.374594 254.600031 28.374594ZM 250.000031 160.183594L 250.000031 268.183594L 10.000031 268.183594L 10.000059 160.183594L 250.000031 160.183594Z"></path></g></g></g><g id="g-root-cp_3_shape-3_1uqjo3v706cjl-fill" data-item-order="-367162" transform="translate(35, 362.00006103515625)"><g id="cp_3_shape-3_1uqjo3v706cjl-fill" stroke="none" fill="#c866f6"><g><path d="M 214 64.3209C 244 64.3209 268 46 268 10L 280 10L 280 100.3055L 10 100.3055C 10.000022 80.4233 26.1177 64.3209 45.9999 64.3209L 214 64.3209Z"></path></g></g></g><g id="g-root-cp_3_shape-3_1_1hf35qj706e4j-fill" data-item-order="-367156" transform="translate(287.302734375, 104)"><g id="cp_3_shape-3_1_1hf35qj706e4j-fill" stroke="none" fill="#c866f6"><g><path d="M 27.696778 268L 15.696778 268L 15.696778 160L 27.696778 160L 27.696778 268ZM 32.2969 28.191L 27.6969 28.191L 27.6969 160L 15.6969 160L 15.6969 28.1909L 11.0169 28.1909C 10.2369 28.1909 9.7469 27.3409 10.1369 26.6609L 20.8599 10.4483C 21.2561 9.8494 22.1356 9.8508 22.5298 10.451L 33.1769 26.6609C 33.5769 27.341 33.0869 28.191 32.2969 28.191Z"></path></g></g></g><g id="g-root-cp_2_shape-2_18jg5hn706ex9-fill" data-item-order="-367142" transform="translate(347.8775634765625, 103.81640625)"><g id="cp_2_shape-2_18jg5hn706ex9-fill" stroke="none" fill="#af58d7"><g><path d="M 51.622433 304.183655L 219.622433 304.183555C 239.504433 304.183555 255.622433 288.081355 255.622433 268.199255L 255.622433 268.183655L 15.622433 268.183655C 15.622433 288.065855 31.740133 304.183655 51.622433 304.183655ZM 11.022416 28.374594L 15.622416 28.374594L 15.622416 160.183594L 255.622016 160.183594C 255.622016 140.301594 239.505016 124.504594 219.623016 124.504594L 93.622416 124.504594C 52.552416 124.504594 27.622416 94.374494 27.622416 55.034494L 27.622416 28.374494L 32.302416 28.374494C 33.082416 28.374494 33.572416 27.524494 33.182416 26.844494L 22.459416 10.631894C 22.063216 10.032994 21.183716 10.034394 20.789516 10.634594L 10.142416 26.844494C 9.742416 27.524594 10.232416 28.374594 11.022416 28.374594ZM 15.62233 160.183594L 15.62233 268.183594L 255.62233 268.183594L 255.62233 160.183594L 15.62233 160.183594Z"></path></g></g></g><g id="g-root-cp_4_shape-4_14494gb706cjr-fill" data-item-order="-367120" transform="translate(323, 362.00006103515625)"><g id="cp_4_shape-4_14494gb706cjr-fill" stroke="none" fill="#e2a3ff"><g><path d="M 76 64.3209C 46 64.3209 22 46 22 10L 10 10L 10 100.3055L 280 100.3055C 280 80.4233 263.882 64.3209 244 64.3209L 76 64.3209Z"></path></g></g></g><g id="g-root-cp_4_shape-4_1_zofmbv706dc1-fill" data-item-order="-367114" transform="translate(317.382568359375, 104)"><g id="cp_4_shape-4_1_zofmbv706dc1-fill" stroke="none" fill="#e2a3ff"><g><path d="M 15.622559 268L 27.622559 268L 27.622559 160L 15.622559 160L 15.622559 268ZM 11.0224 28.191L 15.6224 28.191L 15.6224 160L 27.6224 160L 27.6224 28.1909L 32.3024 28.1909C 33.0824 28.1909 33.5724 27.3409 33.1824 26.6609L 22.4594 10.4483C 22.0632 9.8494 21.1837 9.8508 20.7895 10.451L 10.1424 26.6609C 9.7424 27.341 10.2324 28.191 11.0224 28.191Z"></path></g></g></g><g id="g-root-cp_3_shape-3_2_mcz3yj706ewz-fill" data-item-order="-367096" transform="translate(35, 452.00006103515625)"><g id="cp_3_shape-3_2_mcz3yj706ewz-fill" stroke="none" fill="#c866f6"><g><path d="M 280 10L 280 141.978546L 10 141.978546L 10.000031 10L 280 10ZM 244 178.007786L 45.9999 178.007686C 26.1177 178.007686 10.000032 161.905486 10 142.023386L 10 142.007786L 280 142.007786C 280 161.889986 263.882 178.007786 244 178.007786Z"></path></g></g></g><g id="g-root-cp_4_shape-4_2_9252ob706dc5-fill" data-item-order="-367072" transform="translate(323, 452.00006103515625)"><g id="cp_4_shape-4_2_9252ob706dc5-fill" stroke="none" fill="#e2a3ff"><g><path d="M 10 10L 10 142L 280 142L 280 10L 10 10ZM 46 178L 244 177.9999C 263.882 177.9999 280 161.8977 280 142.0156L 280 142L 10 142C 10 161.8822 26.1177 178 46 178Z"></path></g></g></g><g id="g-root-tx_building_1ursma3706epz-fill" data-item-order="0" transform="translate(308, 38)"><g id="tx_building_1ursma3706epz-fill" stroke="none" fill="#484848"><g><text style="font: 20px Roboto, sans-serif; white-space: pre;" font-size="20px" font-family="Roboto, sans-serif"></text></g></g></g><g id="g-root-ic_uplo_dj7iyz706eq2-fill" data-item-order="0" transform="translate(131.5, 242.00006103515625)"></g><g id="g-root-ic_disp_1cviw976zo4r2-fill" data-item-order="0" transform="translate(449.5, 242.00006103515625)"></g><g id="g-root-tx_datainpu_1d152vf706dxc-fill" data-item-order="0" transform="translate(107.5, 302.00006103515625)"><g id="tx_datainpu_1d152vf706dxc-fill" stroke="none" fill="#ffffff"><g><text style="font: bold 20px Roboto, sans-serif; white-space: pre;" font-weight="bold" font-size="20px" font-family="Roboto, sans-serif"><tspan x="11.79" y="34" dominant-baseline="ideographic">Data Input</tspan></text></g></g></g><g id="g-root-tx_automate_18egfyj6zo3d8-fill" data-item-order="0" transform="translate(395, 302.00006103515625)"><g id="tx_automate_18egfyj6zo3d8-fill" stroke="none" fill="#ffffff"><g><text style="font: bold 20px Roboto, sans-serif; white-space: pre;" font-weight="bold" font-size="20px" font-family="Roboto, sans-serif"><tspan x="17.18" y="34" dominant-baseline="ideographic">Automated EDA</tspan></text></g></g></g><g id="g-root-tx_acceptsc_zqb1l7706cch-fill" data-item-order="0" transform="translate(71.5, 338.00006103515625)"><g id="tx_acceptsc_zqb1l7706cch-fill" stroke="none" fill="#ffffff"><g><text style="font: 15px Roboto, sans-serif; white-space: pre;" font-size="15px" font-family="Roboto, sans-serif"><tspan x="12.48" y="28" dominant-baseline="ideographic">Accepts CSV/Excel files </tspan><tspan x="34.92" y="46" dominant-baseline="ideographic">for data analysis.</tspan></text></g></g></g><g id="g-root-tx_cleansan_dcce6j6zo45h-fill" data-item-order="0" transform="translate(389, 338.00006103515625)"><g id="tx_cleansan_dcce6j6zo45h-fill" stroke="none" fill="#ffffff"><g><text style="font: 15px Roboto, sans-serif; white-space: pre;" font-size="15px" font-family="Roboto, sans-serif"><tspan x="21.22" y="28" dominant-baseline="ideographic">Cleans and structures </tspan><tspan x="12.44" y="46" dominant-baseline="ideographic">data, detects anomalies.</tspan></text></g></g></g><g id="g-root-ic_pie_4jtrd76zqww3-fill" data-item-order="0" transform="translate(146, 440.00006103515625)"></g><g id="g-root-ic_1_mdlo7f6zsc8w-fill" data-item-order="0" transform="translate(434, 440.00006103515625)"></g><g id="g-root-tx_llmdrive_1lseuob6zqww1-fill" data-item-order="0" transform="translate(74, 500.00006103515625)"><g id="tx_llmdrive_1lseuob6zqww1-fill" stroke="none" fill="#ffffff"><g><text style="font: bold 20px Roboto, sans-serif; white-space: pre;" font-weight="bold" font-size="20px" font-family="Roboto, sans-serif"><tspan x="15.03" y="34" dominant-baseline="ideographic">LLM-Driven Insights</tspan></text></g></g></g><g id="g-root-tx_dynamicv_mbq8y36zsd8m-fill" data-item-order="0" transform="translate(392, 500.00006103515625)"><g id="tx_dynamicv_mbq8y36zsd8m-fill" stroke="none" fill="#ffffff"><g><text style="font: bold 20px Roboto, sans-serif; white-space: pre;" font-weight="bold" font-size="20px" font-family="Roboto, sans-serif"><tspan x="36.98" y="34" dominant-baseline="ideographic">Dynamic </tspan><tspan x="12.58" y="58" dominant-baseline="ideographic">Visualizations</tspan></text></g></g></g><g id="g-root-tx_provides_v64b0r6zqww2-fill" data-item-order="0" transform="translate(68, 536.0000610351562)"><g id="tx_provides_v64b0r6zqww2-fill" stroke="none" fill="#ffffff"><g><text style="font: 15px Roboto, sans-serif; white-space: pre;" font-size="15px" font-family="Roboto, sans-serif"><tspan x="16.35" y="28" dominant-baseline="ideographic">Provides actionable insights </tspan><tspan x="16.3" y="46" dominant-baseline="ideographic">using large language model.</tspan></text></g></g></g><g id="g-root-tx_createsi_1lvj83v6zsaof-fill" data-item-order="0" transform="translate(368, 560.0000610351562)"><g id="tx_createsi_1lvj83v6zsaof-fill" stroke="none" fill="#ffffff"><g><text style="font: 15px Roboto, sans-serif; white-space: pre;" font-size="15px" font-family="Roboto, sans-serif"><tspan x="12.88" y="28" dominant-baseline="ideographic">Creates interactive charts </tspan><tspan x="19.22" y="46" dominant-baseline="ideographic">based on data patterns.</tspan></text></g></g></g><g id="g-root-cp_1_shape-1_4mn63706f47-stroke" data-item-order="-367184" transform="translate(35.499969482421875, 103.81640625)"><g id="cp_1_shape-1_4mn63706f47-stroke" fill="none" stroke-linecap="round" stroke-linejoin="round" stroke-miterlimit="4" stroke="#fafafa" stroke-width="2" stroke-dasharray="0.1, 6.0"><g><path d="M 10.000031 160.1836C 10.000031 140.3014 26.117731 124.3209 45.999931 124.3209L 172.000031 124.3209C 213.070031 124.3209 238.000031 94.1909 238.000031 54.8509L 238.000031 28.1909L 233.320031 28.1909C 232.540031 28.1909 232.050031 27.3409 232.440031 26.6609L 243.163131 10.4483C 243.559231 9.8494 244.438731 9.8508 244.833031 10.451L 255.480031 26.6609C 255.880031 27.341 255.390031 28.191 254.600031 28.191L 250.000031 28.191L 250.000031 160.1836M 250.000131 268.183594C 250.000131 288.065794 233.882331 304.191394 214.000131 304.191394L 45.999931 304.191294C 26.117731 304.191294 10.000031 288.081294 10.000031 268.199194L 10.000031 268.183594M 250.000138 268.183594L 250.000138 160.183594M 10.000031 160.183594L 10.000031 268.183594"></path></g></g></g><g id="g-root-cp_3_shape-3_1uqjo3v706cjl-stroke" data-item-order="-367162" transform="translate(35, 362.00006103515625)"><g id="cp_3_shape-3_1uqjo3v706cjl-stroke" fill="none" stroke-linecap="round" stroke-linejoin="round" stroke-miterlimit="4" stroke="#ffffff" stroke-width="2" stroke-dasharray="0.1, 6.0"><g><path d="M 268 10C 268 46 244 64.3209 214 64.3209L 45.9999 64.3209C 26.1177 64.3209 10 80.4233 10 100.3055M 280 100.3055L 280 10"></path></g></g></g><g id="g-root-cp_3_shape-3_1_1hf35qj706e4j-stroke" data-item-order="-367156" transform="translate(287.302734375, 104)"><g id="cp_3_shape-3_1_1hf35qj706e4j-stroke" fill="none" stroke-linecap="round" stroke-linejoin="round" stroke-miterlimit="4" stroke="#ffffff" stroke-width="2" stroke-dasharray="0.1, 6.0"><g><path d="M 15.697266 160L 15.697266 268M 27.697266 268L 27.697266 160M 15.6969 160L 15.6969 28.1909L 11.0169 28.1909C 10.2369 28.1909 9.7469 27.3409 10.1369 26.6609L 20.8599 10.4483C 21.2561 9.8494 22.1356 9.8508 22.5298 10.451L 33.1769 26.6609C 33.5769 27.341 33.0869 28.191 32.2969 28.191L 27.6969 28.191L 27.6969 160"></path></g></g></g><g id="g-root-cp_2_shape-2_18jg5hn706ex9-stroke" data-item-order="-367142" transform="translate(347.8775634765625, 103.81640625)"><g id="cp_2_shape-2_18jg5hn706ex9-stroke" fill="none" stroke-linecap="round" stroke-linejoin="round" stroke-miterlimit="4" stroke="#ffffff" stroke-width="2" stroke-dasharray="0.1, 6.0"><g><path d="M 255.622416 160.1836C 255.622416 140.3014 239.504716 124.3209 219.622616 124.3209L 93.622416 124.3209C 52.552416 124.3209 27.622416 94.1909 27.622416 54.8509L 27.622416 28.1909L 32.302416 28.1909C 33.082416 28.1909 33.572416 27.3409 33.182416 26.6609L 22.459416 10.4483C 22.063216 9.8494 21.183716 9.8508 20.789516 10.451L 10.142416 26.6609C 9.742416 27.341 10.232416 28.191 11.022416 28.191L 15.622416 28.191L 15.622416 160.1836M 15.622437 268.183594C 15.622437 288.065794 31.740137 304.183594 51.622437 304.183594L 219.622637 304.183494C 239.504737 304.183494 255.622437 288.081294 255.622437 268.199194L 255.622437 268.183594M 15.62233 268.183594L 15.62233 160.183594M 255.62233 160.183594L 255.62233 268.183594"></path></g></g></g><g id="g-root-cp_4_shape-4_14494gb706cjr-stroke" data-item-order="-367120" transform="translate(323, 362.00006103515625)"><g id="cp_4_shape-4_14494gb706cjr-stroke" fill="none" stroke-linecap="round" stroke-linejoin="round" stroke-miterlimit="4" stroke="#ffffff" stroke-width="2" stroke-dasharray="0.1, 6.0"><g><path d="M 22 10C 22 46 46 64.3209 76 64.3209L 244.0002 64.3209C 263.8824 64.3209 280 80.4233 280 100.3055M 10 100.3055L 10 10"></path></g></g></g><g id="g-root-cp_4_shape-4_1_zofmbv706dc1-stroke" data-item-order="-367114" transform="translate(317.382568359375, 104)"><g id="cp_4_shape-4_1_zofmbv706dc1-stroke" fill="none" stroke-linecap="round" stroke-linejoin="round" stroke-miterlimit="4" stroke="#ffffff" stroke-width="2" stroke-dasharray="0.1, 6.0"><g><path d="M 27.622071 160L 27.622071 268M 15.622071 268L 15.622071 160M 27.6224 160L 27.6224 28.1909L 32.3024 28.1909C 33.0824 28.1909 33.5724 27.3409 33.1824 26.6609L 22.4594 10.4483C 22.0632 9.8494 21.1837 9.8508 20.7895 10.451L 10.1424 26.6609C 9.7424 27.341 10.2324 28.191 11.0224 28.191L 15.6224 28.191L 15.6224 160"></path></g></g></g><g id="g-root-cp_3_shape-3_2_mcz3yj706ewz-stroke" data-item-order="-367096" transform="translate(35, 452.00006103515625)"><g id="cp_3_shape-3_2_mcz3yj706ewz-stroke" fill="none" stroke-linecap="round" stroke-linejoin="round" stroke-miterlimit="4" stroke="#ffffff" stroke-width="2" stroke-dasharray="0.1, 6.0"><g><path d="M 280 141.978546L 280 10M 10 10L 10 142M 280.0001 142.007786C 280.0001 161.889986 263.8823 178.007786 244.0001 178.007786L 45.9999 178.007686C 26.1177 178.007686 10 161.905486 10 142.023386L 10 142.007786"></path></g></g></g><g id="g-root-cp_4_shape-4_2_9252ob706dc5-stroke" data-item-order="-367072" transform="translate(323, 452.00006103515625)"><g id="cp_4_shape-4_2_9252ob706dc5-stroke" fill="none" stroke-linecap="round" stroke-linejoin="round" stroke-miterlimit="4" stroke="#ffffff" stroke-width="2" stroke-dasharray="0.1, 6.0"><g><path d="M 10 142L 10 10M 280 10L 280 142M 10 142C 10 161.8822 26.1177 178.0078 45.9999 178.0078L 244.0001 178.0077C 263.8823 178.0077 280 161.8977 280.0001 142.0156L 280.0001 142"></path></g></g></g><g id="g-root-tx_building_1ursma3706epz-stroke" data-item-order="0" transform="translate(308, 38)"></g><g id="g-root-ic_uplo_dj7iyz706eq2-stroke" data-item-order="0" transform="translate(131.5, 242.00006103515625)"><g id="ic_uplo_dj7iyz706eq2-stroke" fill="none" stroke-linecap="round" stroke-linejoin="round" stroke-miterlimit="4" stroke="#ffffff" stroke-width="2"><g><path d="M 19 27L 38 27M 19 33L 31 33M 19 21L 33 21M 19 39L 27 39M 19 45L 27 45M 31 57L 13 57C 11.895431 57 11 56.104568 11 55L 11 13C 11 11.895431 11.895431 11 13 11L 39.585999 11C 40.11639 11.000113 40.625015 11.210901 41 11.586L 48.414001 19C 48.789101 19.374985 48.999886 19.88361 49 20.414L 49 27M 33 45C 33 51.627419 38.372581 57 45 57C 51.627419 57 57 51.627419 57 45C 57 38.372581 51.627419 33 45 33C 38.372581 33 33 38.372581 33 45ZM 45 51L 45 39M 45 39L 40.5 43.5M 45 39L 49.5 43.5"></path></g></g></g><g id="g-root-ic_disp_1cviw976zo4r2-stroke" data-item-order="0" transform="translate(449.5, 242.00006103515625)"><g id="ic_disp_1cviw976zo4r2-stroke" fill="none" stroke-linecap="round" stroke-linejoin="round" stroke-miterlimit="4" stroke="#ffffff" stroke-width="2"><g><path d="M 12.89996 21.299801L 12.89996 36.299801M 12.89996 45.299801C 12.34768 45.299801 11.899964 44.852001 11.899964 44.299801C 11.899964 43.747601 12.34768 43.299801 12.89996 43.299801M 12.90002 45.299801C 13.4523 45.299801 13.90002 44.852001 13.90002 44.299801C 13.90002 43.747601 13.4523 43.299801 12.90002 43.299801M 28.899981 43.299801C 26.29998 40.499802 24.89994 36.499802 25.499939 32.299801C 25.69994 29.6998 26.89996 27.299801 28.299959 25.299801M 50.700001 25.8999C 52.5 28.499901 53.5 31.899799 53.099998 35.499802C 52.700001 38.899799 51.099998 41.899799 48.700001 44.0998M 10 10M 49.099998 31.4998L 50.299999 25.299801L 56.099998 27.69982M 10 10M 49.099998 31.4998L 50.299999 25.299801L 56.099998 27.69982M 10 10M 22.89996 41.299999L 28.89996 43.499802L 29.699961 37.0998M 10 10M 34 27.17478L 37.4958 13.19136C 37.676598 12.46852 38.326 11.961426 39.071198 11.961426L 39.071198 11.961426C 39.8162 11.961426 40.465599 12.46852 40.6464 13.19136L 44.1422 27.17478M 35.267799 22.103661L 42.874401 22.103661M 10 10M 39.8494 40.2994L 39.8494 55.2202M 10 10M 36.119202 44.029598L 36.314201 44.029598C 38.266602 44.029598 39.8494 42.4468 39.8494 40.494202L 39.8494 40.2994M 10 10M 43.579601 55.220001L 36.119202 55.220001"></path></g></g></g><g id="g-root-tx_datainpu_1d152vf706dxc-stroke" data-item-order="0" transform="translate(107.5, 302.00006103515625)"></g><g id="g-root-tx_automate_18egfyj6zo3d8-stroke" data-item-order="0" transform="translate(395, 302.00006103515625)"></g><g id="g-root-tx_acceptsc_zqb1l7706cch-stroke" data-item-order="0" transform="translate(71.5, 338.00006103515625)"></g><g id="g-root-tx_cleansan_dcce6j6zo45h-stroke" data-item-order="0" transform="translate(389, 338.00006103515625)"></g><g id="g-root-ic_pie_4jtrd76zqww3-stroke" data-item-order="0" transform="translate(146, 440.00006103515625)"><g id="ic_pie_4jtrd76zqww3-stroke" fill="none" stroke-linecap="round" stroke-linejoin="round" stroke-miterlimit="4" stroke="#ffffff" stroke-width="2"><g><path d="M 11.5 34C 11.500001 46.426407 21.573593 56.5 34 56.5C 46.426407 56.5 56.5 46.426407 56.5 34C 56.5 21.573593 46.426407 11.500001 34 11.500001C 21.573593 11.500001 11.500001 21.573593 11.500001 34M 27 34C 27.000002 37.865993 30.134008 41 34 41C 37.865993 41 41 37.865993 41 34C 41 30.134008 37.865993 27.000002 34 27.000002C 30.134008 27.000002 27.000002 30.134008 27.000002 34M 34 11.5L 34 27M 10 10M 56.5 34L 41 34M 10 10M 18.109379 49.890598L 29.050779 38.9492"></path></g></g></g><g id="g-root-ic_1_mdlo7f6zsc8w-stroke" data-item-order="0" transform="translate(434, 440.00006103515625)"><g id="ic_1_mdlo7f6zsc8w-stroke" fill="none" stroke-linecap="round" stroke-linejoin="round" stroke-miterlimit="4" stroke="#ffffff" stroke-width="2"><g><path d="M 11 51C 11 54.313709 13.686292 57 17 57C 20.313709 57 23 54.313709 23 51C 23 47.686295 20.313709 45 17 45C 13.686292 45 11 47.686295 11 51M 45 17C 45 20.313709 47.686295 23 51 23C 54.313709 23 57 20.313709 57 17C 57 13.686292 54.313709 11 51 11C 47.686295 11 45 13.686292 45 17M 17 45L 17 36.09C 17.001104 34.960808 17.916805 34.045998 19.046001 34.046001L 48.953999 34.045998C 50.083977 34.046001 51 33.129974 51 32L 51 23.271999"></path></g></g></g><g id="g-root-tx_llmdrive_1lseuob6zqww1-stroke" data-item-order="0" transform="translate(74, 500.00006103515625)"></g><g id="g-root-tx_dynamicv_mbq8y36zsd8m-stroke" data-item-order="0" transform="translate(392, 500.00006103515625)"></g><g id="g-root-tx_provides_v64b0r6zqww2-stroke" data-item-order="0" transform="translate(68, 536.0000610351562)"></g><g id="g-root-tx_createsi_1lvj83v6zsaof-stroke" data-item-order="0" transform="translate(368, 560.0000610351562)"></g></g></g></svg>