<?xml version="1.0" encoding="utf-8" standalone="yes"?>
<!DOCTYPE svg PUBLIC "-//W3C//DTD SVG 1.1//EN" "http://www.w3.org/Graphics/SVG/1.1/DTD/svg11.dtd">
<svg width="744" height="677" viewBox="0 0 744 677" style="fill:none;stroke:none;fill-rule:evenodd;clip-rule:evenodd;stroke-linecap:round;stroke-linejoin:round;stroke-miterlimit:1.5;" version="1.1" xmlns="http://www.w3.org/2000/svg" xmlns:xlink="http://www.w3.org/1999/xlink"><style class="text-font-style fontImports" data-font-family="Roboto">@import url('https://fonts.googleapis.com/css2?family=Roboto:wght@400;700&amp;display=block');</style><g id="items" style="isolation: isolate"><g id="blend" style="mix-blend-mode: normal"><g id="g-root-sy_0_cu_mahk3q1grujux-fill" data-item-order="-60142" transform="translate(306, 206)"><g id="sy_0_cu_mahk3q1grujux-fill" stroke="none" fill="#4f3d58"><g><path d="M 54.78 406.78L 60.38 409.98L 61.98 405.18L 66 409.18L 70.02 405.18L 71.62 409.98L 77.22 406.78L 122 346L 94 358L 38 358L 10 346L 54.78 406.78ZM 94 298L 38 298L 10 310L 38 322L 94 322L 122 310L 94 298ZM 66 314.8C 54.95 314.8 46 312.65 46 310C 46 307.35 54.95 305.2 66 305.2C 77.05 305.2 86 307.35 86 310C 86 312.65 77.05 314.8 66 314.8ZM 94 226L 38 226L 10 238L 38 250L 94 250L 122 238L 94 226ZM 66 242.8C 54.95 242.8 46 240.65 46 238C 46 235.35 54.95 233.2 66 233.2C 77.05 233.2 86 235.35 86 238C 86 240.65 77.05 242.8 66 242.8ZM 94 154L 38 154L 10 166L 38 178L 94 178L 122 166L 94 154ZM 66 170.8C 54.95 170.8 46 168.65 46 166C 46 163.35 54.95 161.2 66 161.2C 77.05 161.2 86 163.35 86 166C 86 168.65 77.05 170.8 66 170.8ZM 94 82L 38 82L 10 94L 38 106L 94 106L 122 94L 94 82ZM 66 98.8C 54.95 98.8 46 96.65 46 94C 46 91.35 54.95 89.2 66 89.2C 77.05 89.2 86 91.35 86 94C 86 96.65 77.05 98.8 66 98.8ZM 94 10L 38 10L 10 22L 38 34L 94 34L 122 22L 94 10ZM 66 26.8C 54.95 26.8 46 24.65 46 22C 46 19.35 54.95 17.2 66 17.2C 77.05 17.2 86 19.35 86 22C 86 24.65 77.05 26.8 66 26.8Z"></path></g></g></g><g id="g-root-sy_0_cu_1_1q9hkau1grukg2-fill" data-item-order="-60140" transform="translate(306.000244140625, 114)"><g id="sy_0_cu_1_1q9hkau1grukg2-fill" stroke="none" fill="#4f3d58"><g><path d="M 54.779785 498.780176L 60.379785 501.980176L 61.979785 497.180176L 65.999785 501.180176L 70.019785 497.180176L 71.619785 501.980176L 77.219785 498.780176L 65.999785 514.000176L 54.779785 498.780176ZM 65.999756 406.800195C 77.045456 406.800195 85.999756 404.651195 85.999756 402.000195C 85.999756 399.349195 77.045456 397.200195 65.999756 397.200195C 54.954056 397.200195 45.999756 399.349195 45.999756 402.000195C 45.999756 404.651195 54.954056 406.800195 65.999756 406.800195ZM 65.999756 334.800195C 77.045456 334.800195 85.999756 332.651195 85.999756 330.000195C 85.999756 327.349195 77.045456 325.200195 65.999756 325.200195C 54.954056 325.200195 45.999756 327.349195 45.999756 330.000195C 45.999756 332.651195 54.954056 334.800195 65.999756 334.800195ZM 65.999756 262.800195C 77.045456 262.800195 85.999756 260.651195 85.999756 258.000195C 85.999756 255.349195 77.045456 253.200195 65.999756 253.200195C 54.954056 253.200195 45.999756 255.349195 45.999756 258.000195C 45.999756 260.651195 54.954056 262.800195 65.999756 262.800195ZM 65.999756 190.800195C 77.045456 190.800195 85.999756 188.651195 85.999756 186.000195C 85.999756 183.349195 77.045456 181.200195 65.999756 181.200195C 54.954056 181.200195 45.999756 183.349195 45.999756 186.000195C 45.999756 188.651195 54.954056 190.800195 65.999756 190.800195ZM 65.999756 118.800195C 77.045456 118.800195 85.999756 116.651195 85.999756 114.000195C 85.999756 111.349195 77.045456 109.200195 65.999756 109.200195C 54.954056 109.200195 45.999756 111.349195 45.999756 114.000195C 45.999756 116.651195 54.954056 118.800195 65.999756 118.800195ZM 10 34L 38 46L 94 46L 122 34L 122 42L 94 54L 38 54L 10 42L 10 34ZM 10 26L 38 38L 94 38L 122 26L 122 34L 94 46L 38 46L 10 34L 10 26ZM 10 26L 38 38L 94 38L 122 26L 122 10L 94 22L 38 22L 10 10L 10 26Z"></path></g></g></g><g id="g-root-sy_6_cu_1430irq1grujnv-fill" data-item-order="-60136" transform="translate(390, 506)"><g id="sy_6_cu_1430irq1grujnv-fill" stroke="none" fill="#e2a3ff"><g><path d="M 10 58L 38 46L 38 10L 10 22L 10 58Z"></path></g></g></g><g id="g-root-sy_6_cu_1_mcczd21gruiv8-fill" data-item-order="-60134" transform="translate(334, 518)"><g id="sy_6_cu_1_mcczd21gruiv8-fill" stroke="none" fill="#e2a3ff"><g><path d="M 66 10L 10 10L 10 46L 66 46L 66 10Z"></path></g></g></g><g id="g-root-sy_6_cu_2_1ur6hom1gruio5-fill" data-item-order="-60132" transform="translate(306, 506)"><g id="sy_6_cu_2_1ur6hom1gruio5-fill" stroke="none" fill="#e2a3ff"><g><path d="M 38 22L 10 10L 10 46L 38 58L 38 22Z"></path></g></g></g><g id="g-root-sy_5_cu_1hfpzba1gruk92-fill" data-item-order="-60128" transform="translate(390, 434)"><g id="sy_5_cu_1hfpzba1gruk92-fill" stroke="none" fill="#d171fe"><g><path d="M 10 58L 38 46L 38 10L 10 22L 10 58Z"></path></g></g></g><g id="g-root-sy_5_cu_1_144vy121gruio7-fill" data-item-order="-60126" transform="translate(334, 446)"><g id="sy_5_cu_1_144vy121gruio7-fill" stroke="none" fill="#d171fe"><g><path d="M 66 10L 10 10L 10 46L 66 46L 66 10Z"></path></g></g></g><g id="g-root-sy_5_cu_2_qtffnq1gruk94-fill" data-item-order="-60124" transform="translate(306, 434)"><g id="sy_5_cu_2_qtffnq1gruk94-fill" stroke="none" fill="#d171fe"><g><path d="M 38 22L 10 10L 10 46L 38 58L 38 22Z"></path></g></g></g><g id="g-root-sy_4_cu_diledi1gruio9-fill" data-item-order="-60120" transform="translate(390, 362)"><g id="sy_4_cu_diledi1gruio9-fill" stroke="none" fill="#c061ed"><g><path d="M 10 58L 38 46L 38 10L 10 22L 10 58Z"></path></g></g></g><g id="g-root-sy_4_cu_1_74w061gruk96-fill" data-item-order="-60118" transform="translate(334, 374)"><g id="sy_4_cu_1_74w061gruk96-fill" stroke="none" fill="#c061ed"><g><path d="M 66 10L 10 10L 10 46L 66 46L 66 10Z"></path></g></g></g><g id="g-root-sy_4_cu_2_1hhlekm1gruj9f-fill" data-item-order="-60116" transform="translate(306, 362)"><g id="sy_4_cu_2_1hhlekm1gruj9f-fill" stroke="none" fill="#c061ed"><g><path d="M 38 22L 10 10L 10 46L 38 58L 38 22Z"></path></g></g></g><g id="g-root-sy_3_cu_146rdae1gruhok-fill" data-item-order="-60112" transform="translate(390, 290)"><g id="sy_3_cu_146rdae1gruhok-fill" stroke="none" fill="#af58d7"><g><path d="M 10 58L 38 46L 38 10L 10 22L 10 58Z"></path></g></g></g><g id="g-root-sy_3_cu_1_hznuo61gruk25-fill" data-item-order="-60110" transform="translate(334, 302)"><g id="sy_3_cu_1_hznuo61gruk25-fill" stroke="none" fill="#af58d7"><g><path d="M 66 10L 10 10L 10 46L 66 46L 66 10Z"></path></g></g></g><g id="g-root-sy_3_cu_2_dkgtmu1gruhom-fill" data-item-order="-60108" transform="translate(306, 290)"><g id="sy_3_cu_2_dkgtmu1gruhom-fill" stroke="none" fill="#af58d7"><g><path d="M 38 22L 10 10L 10 46L 38 58L 38 22Z"></path></g></g></g><g id="g-root-sy_2_cu_90b9i1gruj9j-fill" data-item-order="-60104" transform="translate(390, 218)"><g id="sy_2_cu_90b9i1gruj9j-fill" stroke="none" fill="#974bbb"><g><path d="M 10 58L 38 46L 38 10L 10 22L 10 58Z"></path></g></g></g><g id="g-root-sy_2_cu_1_1lynuva1gruknc-fill" data-item-order="-60102" transform="translate(334, 230)"><g id="sy_2_cu_1_1lynuva1gruknc-fill" stroke="none" fill="#974bbb"><g><path d="M 66 10L 10 10L 10 46L 66 46L 66 10Z"></path></g></g></g><g id="g-root-sy_2_cu_2_18nttl21gruj2h-fill" data-item-order="-60100" transform="translate(306, 218)"><g id="sy_2_cu_2_18nttl21gruj2h-fill" stroke="none" fill="#974bbb"><g><path d="M 38 22L 10 10L 10 46L 38 58L 38 22Z"></path></g></g></g><g id="g-root-sy_1_cu_vcdb7q1grukne-fill" data-item-order="-60096" transform="translate(390.000244140625, 146)"><g id="sy_1_cu_vcdb7q1grukne-fill" stroke="none" fill="#714685"><g><path d="M 10 58L 38 46L 38 10L 10 22L 10 58Z"></path></g></g></g><g id="g-root-sy_1_cu_1_qn6osm1grvwub-fill" data-item-order="-60094" transform="translate(334.000244140625, 158)"><g id="sy_1_cu_1_qn6osm1grvwub-fill" stroke="none" fill="#714685"><g><path d="M 66 10L 10 10L 10 46L 66 46L 66 10Z"></path></g></g></g><g id="g-root-sy_1_cu_2_dbq6fa1grvyf8-fill" data-item-order="-60092" transform="translate(306.000244140625, 146)"><g id="sy_1_cu_2_dbq6fa1grvyf8-fill" stroke="none" fill="#714685"><g><path d="M 38 22L 10 10L 10 46L 38 58L 38 22Z"></path></g></g></g><g id="g-root-sy_1_cu_3_4g366e1grvz7x-fill" data-item-order="-60090" transform="translate(306.0000305175781, 86)"><g id="sy_1_cu_3_4g366e1grvz7x-fill" stroke="none" fill="#714685"><g><path d="M 38.000169 50L 94.000169 50L 121.999969 38C 121.999969 38 122.529969 10 66.000169 10C 9.470169 10 10.000169 38 10.000169 38L 38.000169 50Z"></path></g></g></g><g id="g-root-tx_dividesd_1cws3ra1grvy18-fill" data-item-order="0" transform="translate(26, 332)"><g id="tx_dividesd_1cws3ra1grvy18-fill" stroke="none" fill="#484848"><g><text style="font: 15px Roboto, sans-serif; white-space: pre;" font-size="15px" font-family="Roboto, sans-serif"><tspan x="19.3" y="28" dominant-baseline="ideographic">Divides data into numerical </tspan><tspan x="23.14" y="46" dominant-baseline="ideographic">and categorical categories</tspan></text></g></g></g><g id="g-root-ic_shar_dccqo61grrqq7-fill" data-item-order="0" transform="translate(230, 284)"></g><g id="g-root-ic_2_dcz4li1gryrd8-fill" data-item-order="0" transform="translate(446, 356)"></g><g id="g-root-tx_insightg_v64kcm1grvx8l-fill" data-item-order="0" transform="translate(38, 296)"><g id="tx_insightg_v64kcm1grvx8l-fill" stroke="none" fill="#484848"><g><text style="font: bold 20px Roboto, sans-serif; white-space: pre;" font-weight="bold" font-size="20px" font-family="Roboto, sans-serif"><tspan x="22.3" y="34" dominant-baseline="ideographic">Insight Generation</tspan></text></g></g></g><g id="g-root-tx_appliess_mahk3q1grvy1a-fill" data-item-order="0" transform="translate(506, 260)"><g id="tx_appliess_mahk3q1grvy1a-fill" stroke="none" fill="#484848"><g><text style="font: 15px Roboto, sans-serif; white-space: pre;" font-size="15px" font-family="Roboto, sans-serif"><tspan x="12" y="28" dominant-baseline="ideographic">Applies statistical and </tspan><tspan x="12" y="46" dominant-baseline="ideographic">machine learning techniques</tspan></text></g></g></g><g id="g-root-tx_userinte_1q88m4m1grvwgb-fill" data-item-order="0" transform="translate(506, 368)"><g id="tx_userinte_1q88m4m1grvwgb-fill" stroke="none" fill="#484848"><g><text style="font: bold 20px Roboto, sans-serif; white-space: pre;" font-weight="bold" font-size="20px" font-family="Roboto, sans-serif"><tspan x="12" y="34" dominant-baseline="ideographic">User Interaction</tspan></text></g></g></g><g id="g-root-tx_allowsna_4hylfq1grvy8a-fill" data-item-order="0" transform="translate(506, 404)"><g id="tx_allowsna_4hylfq1grvy8a-fill" stroke="none" fill="#484848"><g><text style="font: 15px Roboto, sans-serif; white-space: pre;" font-size="15px" font-family="Roboto, sans-serif"><tspan x="12" y="28" dominant-baseline="ideographic">Allows natural language </tspan><tspan x="12" y="46" dominant-baseline="ideographic">queries and chat features</tspan></text></g></g></g><g id="g-root-tx_enablese_1q6d6va1grvxfy-fill" data-item-order="0" transform="translate(506, 548)"><g id="tx_enablese_1q6d6va1grvxfy-fill" stroke="none" fill="#484848"><g><text style="font: 15px Roboto, sans-serif; white-space: pre;" font-size="15px" font-family="Roboto, sans-serif"><tspan x="12" y="28" dominant-baseline="ideographic">Enables export of results as </tspan><tspan x="12" y="46" dominant-baseline="ideographic">JSON or tabular data</tspan></text></g></g></g><g id="g-root-ic_net_18nttl21grvx8j-fill" data-item-order="0" transform="translate(230, 428)"></g><g id="g-root-tx_dataanal_8zniti1grvwgf-fill" data-item-order="0" transform="translate(506, 224)"><g id="tx_dataanal_8zniti1grvwgf-fill" stroke="none" fill="#484848"><g><text style="font: bold 20px Roboto, sans-serif; white-space: pre;" font-weight="bold" font-size="20px" font-family="Roboto, sans-serif"><tspan x="12" y="34" dominant-baseline="ideographic">Data Analysis</tspan></text></g></g></g><g id="g-root-ic_view_zs6why1gs8jda-fill" data-item-order="0" transform="translate(446, 212)"></g><g id="g-root-tx_handlesm_40ikm1grvy0w-fill" data-item-order="0" transform="translate(14, 188)"><g id="tx_handlesm_40ikm1grvy0w-fill" stroke="none" fill="#484848"><g><text style="font: 15px Roboto, sans-serif; white-space: pre;" font-size="15px" font-family="Roboto, sans-serif"><tspan x="51.09" y="28" dominant-baseline="ideographic">Handles missing values, </tspan><tspan x="16.11" y="46" dominant-baseline="ideographic">duplicates, and normalization</tspan></text></g></g></g><g id="g-root-tx_createsi_v4953a1grvy88-fill" data-item-order="0" transform="translate(38, 476)"><g id="tx_createsi_v4953a1grvy88-fill" stroke="none" fill="#484848"><g><text style="font: 15px Roboto, sans-serif; white-space: pre;" font-size="15px" font-family="Roboto, sans-serif"><tspan x="17.48" y="28" dominant-baseline="ideographic">Creates interactive charts </tspan><tspan x="18.75" y="46" dominant-baseline="ideographic">with Pandas AI and Plotly</tspan></text></g></g></g><g id="g-root-ic_2_dhxp1i1h26rcw-fill" data-item-order="0" transform="translate(230, 140)"></g><g id="g-root-ic_uplo_18iu0w61grvxtu-fill" data-item-order="0" transform="translate(446, 500)"></g><g id="g-root-tx_dataprep_1luaj9i1grvw8x-fill" data-item-order="0" transform="translate(26, 152)"><g id="tx_dataprep_1luaj9i1grvw8x-fill" stroke="none" fill="#484848"><g><text style="font: bold 20px Roboto, sans-serif; white-space: pre;" font-weight="bold" font-size="20px" font-family="Roboto, sans-serif"><tspan x="15.88" y="34" dominant-baseline="ideographic">Data Pre-processing</tspan></text></g></g></g><g id="g-root-tx_exportop_18fpngm1grvwnb-fill" data-item-order="0" transform="translate(506, 512)"><g id="tx_exportop_18fpngm1grvwnb-fill" stroke="none" fill="#484848"><g><text style="font: bold 20px Roboto, sans-serif; white-space: pre;" font-weight="bold" font-size="20px" font-family="Roboto, sans-serif"><tspan x="12" y="34" dominant-baseline="ideographic">Export Options</tspan></text></g></g></g><g id="g-root-tx_analysei_92qo061h2b0uh-fill" data-item-order="0" transform="translate(266, 38)"><g id="tx_analysei_92qo061h2b0uh-fill" stroke="none" fill="#484848"><g><text style="font: 20px Roboto, sans-serif; white-space: pre;" font-size="20px" font-family="Roboto, sans-serif"><tspan x="15.51" y="34" dominant-baseline="ideographic">Analyse-IQ Overview</tspan></text></g></g></g><g id="g-root-tx_visualan_htf3t21grvwnd-fill" data-item-order="0" transform="translate(74, 440)"><g id="tx_visualan_htf3t21grvwnd-fill" stroke="none" fill="#484848"><g><text style="font: bold 20px Roboto, sans-serif; white-space: pre;" font-weight="bold" font-size="20px" font-family="Roboto, sans-serif"><tspan x="14.95" y="34" dominant-baseline="ideographic">Visual Analysis</tspan></text></g></g></g><g id="g-root-sy_0_cu_mahk3q1grujux-stroke" data-item-order="-60142" transform="translate(306, 206)"><g id="sy_0_cu_mahk3q1grujux-stroke" fill="none" stroke-linecap="round" stroke-linejoin="round" stroke-miterlimit="4" stroke="#ffffff" stroke-width="2"><g><path d="M 54.78 406.78L 60.38 409.98L 61.98 405.18L 66 409.18L 70.02 405.18L 71.62 409.98L 77.22 406.78L 122 346L 94 358L 38 358L 10 346L 54.78 406.78ZM 94 298L 38 298L 10 310L 38 322L 94 322L 122 310L 94 298ZM 66 314.8C 54.95 314.8 46 312.65 46 310C 46 307.35 54.95 305.2 66 305.2C 77.05 305.2 86 307.35 86 310C 86 312.65 77.05 314.8 66 314.8ZM 94 226L 38 226L 10 238L 38 250L 94 250L 122 238L 94 226ZM 66 242.8C 54.95 242.8 46 240.65 46 238C 46 235.35 54.95 233.2 66 233.2C 77.05 233.2 86 235.35 86 238C 86 240.65 77.05 242.8 66 242.8ZM 94 154L 38 154L 10 166L 38 178L 94 178L 122 166L 94 154ZM 66 170.8C 54.95 170.8 46 168.65 46 166C 46 163.35 54.95 161.2 66 161.2C 77.05 161.2 86 163.35 86 166C 86 168.65 77.05 170.8 66 170.8ZM 94 82L 38 82L 10 94L 38 106L 94 106L 122 94L 94 82ZM 66 98.8C 54.95 98.8 46 96.65 46 94C 46 91.35 54.95 89.2 66 89.2C 77.05 89.2 86 91.35 86 94C 86 96.65 77.05 98.8 66 98.8ZM 94 10L 38 10L 10 22L 38 34L 94 34L 122 22L 94 10ZM 66 26.8C 54.95 26.8 46 24.65 46 22C 46 19.35 54.95 17.2 66 17.2C 77.05 17.2 86 19.35 86 22C 86 24.65 77.05 26.8 66 26.8Z"></path></g></g></g><g id="g-root-sy_0_cu_1_1q9hkau1grukg2-stroke" data-item-order="-60140" transform="translate(306.000244140625, 114)"><g id="sy_0_cu_1_1q9hkau1grukg2-stroke" fill="none" stroke-linecap="round" stroke-linejoin="round" stroke-miterlimit="4" stroke="#ffffff" stroke-width="2"><g><path d="M 54.779785 498.780176L 60.379785 501.980176L 61.979785 497.180176L 65.999785 501.180176L 70.019785 497.180176L 71.619785 501.980176L 77.219785 498.780176L 65.999785 514.000176L 54.779785 498.780176ZM 65.999756 406.800195C 77.045456 406.800195 85.999756 404.651195 85.999756 402.000195C 85.999756 399.349195 77.045456 397.200195 65.999756 397.200195C 54.954056 397.200195 45.999756 399.349195 45.999756 402.000195C 45.999756 404.651195 54.954056 406.800195 65.999756 406.800195ZM 65.999756 334.800195C 77.045456 334.800195 85.999756 332.651195 85.999756 330.000195C 85.999756 327.349195 77.045456 325.200195 65.999756 325.200195C 54.954056 325.200195 45.999756 327.349195 45.999756 330.000195C 45.999756 332.651195 54.954056 334.800195 65.999756 334.800195ZM 65.999756 262.800195C 77.045456 262.800195 85.999756 260.651195 85.999756 258.000195C 85.999756 255.349195 77.045456 253.200195 65.999756 253.200195C 54.954056 253.200195 45.999756 255.349195 45.999756 258.000195C 45.999756 260.651195 54.954056 262.800195 65.999756 262.800195ZM 65.999756 190.800195C 77.045456 190.800195 85.999756 188.651195 85.999756 186.000195C 85.999756 183.349195 77.045456 181.200195 65.999756 181.200195C 54.954056 181.200195 45.999756 183.349195 45.999756 186.000195C 45.999756 188.651195 54.954056 190.800195 65.999756 190.800195ZM 65.999756 118.800195C 77.045456 118.800195 85.999756 116.651195 85.999756 114.000195C 85.999756 111.349195 77.045456 109.200195 65.999756 109.200195C 54.954056 109.200195 45.999756 111.349195 45.999756 114.000195C 45.999756 116.651195 54.954056 118.800195 65.999756 118.800195ZM 10 34L 38 46L 94 46L 122 34L 122 42L 94 54L 38 54L 10 42L 10 34ZM 10 26L 38 38L 94 38L 122 26L 122 34L 94 46L 38 46L 10 34L 10 26ZM 10 26L 38 38L 94 38L 122 26L 122 10L 94 22L 38 22L 10 10L 10 26Z"></path></g></g></g><g id="g-root-sy_6_cu_1430irq1grujnv-stroke" data-item-order="-60136" transform="translate(390, 506)"><g id="sy_6_cu_1430irq1grujnv-stroke" fill="none" stroke-linecap="round" stroke-linejoin="round" stroke-miterlimit="4" stroke="#ffffff" stroke-width="2"><g><path d="M 10 58L 38 46L 38 10L 10 22L 10 58Z"></path></g></g></g><g id="g-root-sy_6_cu_1_mcczd21gruiv8-stroke" data-item-order="-60134" transform="translate(334, 518)"><g id="sy_6_cu_1_mcczd21gruiv8-stroke" fill="none" stroke-linecap="round" stroke-linejoin="round" stroke-miterlimit="4" stroke="#ffffff" stroke-width="2"><g><path d="M 66 10L 10 10L 10 46L 66 46L 66 10Z"></path></g></g></g><g id="g-root-sy_6_cu_2_1ur6hom1gruio5-stroke" data-item-order="-60132" transform="translate(306, 506)"><g id="sy_6_cu_2_1ur6hom1gruio5-stroke" fill="none" stroke-linecap="round" stroke-linejoin="round" stroke-miterlimit="4" stroke="#ffffff" stroke-width="2"><g><path d="M 38 22L 10 10L 10 46L 38 58L 38 22Z"></path></g></g></g><g id="g-root-sy_5_cu_1hfpzba1gruk92-stroke" data-item-order="-60128" transform="translate(390, 434)"><g id="sy_5_cu_1hfpzba1gruk92-stroke" fill="none" stroke-linecap="round" stroke-linejoin="round" stroke-miterlimit="4" stroke="#ffffff" stroke-width="2"><g><path d="M 10 58L 38 46L 38 10L 10 22L 10 58Z"></path></g></g></g><g id="g-root-sy_5_cu_1_144vy121gruio7-stroke" data-item-order="-60126" transform="translate(334, 446)"><g id="sy_5_cu_1_144vy121gruio7-stroke" fill="none" stroke-linecap="round" stroke-linejoin="round" stroke-miterlimit="4" stroke="#ffffff" stroke-width="2"><g><path d="M 66 10L 10 10L 10 46L 66 46L 66 10Z"></path></g></g></g><g id="g-root-sy_5_cu_2_qtffnq1gruk94-stroke" data-item-order="-60124" transform="translate(306, 434)"><g id="sy_5_cu_2_qtffnq1gruk94-stroke" fill="none" stroke-linecap="round" stroke-linejoin="round" stroke-miterlimit="4" stroke="#ffffff" stroke-width="2"><g><path d="M 38 22L 10 10L 10 46L 38 58L 38 22Z"></path></g></g></g><g id="g-root-sy_4_cu_diledi1gruio9-stroke" data-item-order="-60120" transform="translate(390, 362)"><g id="sy_4_cu_diledi1gruio9-stroke" fill="none" stroke-linecap="round" stroke-linejoin="round" stroke-miterlimit="4" stroke="#ffffff" stroke-width="2"><g><path d="M 10 58L 38 46L 38 10L 10 22L 10 58Z"></path></g></g></g><g id="g-root-sy_4_cu_1_74w061gruk96-stroke" data-item-order="-60118" transform="translate(334, 374)"><g id="sy_4_cu_1_74w061gruk96-stroke" fill="none" stroke-linecap="round" stroke-linejoin="round" stroke-miterlimit="4" stroke="#ffffff" stroke-width="2"><g><path d="M 66 10L 10 10L 10 46L 66 46L 66 10Z"></path></g></g></g><g id="g-root-sy_4_cu_2_1hhlekm1gruj9f-stroke" data-item-order="-60116" transform="translate(306, 362)"><g id="sy_4_cu_2_1hhlekm1gruj9f-stroke" fill="none" stroke-linecap="round" stroke-linejoin="round" stroke-miterlimit="4" stroke="#ffffff" stroke-width="2"><g><path d="M 38 22L 10 10L 10 46L 38 58L 38 22Z"></path></g></g></g><g id="g-root-sy_3_cu_146rdae1gruhok-stroke" data-item-order="-60112" transform="translate(390, 290)"><g id="sy_3_cu_146rdae1gruhok-stroke" fill="none" stroke-linecap="round" stroke-linejoin="round" stroke-miterlimit="4" stroke="#ffffff" stroke-width="2"><g><path d="M 10 58L 38 46L 38 10L 10 22L 10 58Z"></path></g></g></g><g id="g-root-sy_3_cu_1_hznuo61gruk25-stroke" data-item-order="-60110" transform="translate(334, 302)"><g id="sy_3_cu_1_hznuo61gruk25-stroke" fill="none" stroke-linecap="round" stroke-linejoin="round" stroke-miterlimit="4" stroke="#ffffff" stroke-width="2"><g><path d="M 66 10L 10 10L 10 46L 66 46L 66 10Z"></path></g></g></g><g id="g-root-sy_3_cu_2_dkgtmu1gruhom-stroke" data-item-order="-60108" transform="translate(306, 290)"><g id="sy_3_cu_2_dkgtmu1gruhom-stroke" fill="none" stroke-linecap="round" stroke-linejoin="round" stroke-miterlimit="4" stroke="#ffffff" stroke-width="2"><g><path d="M 38 22L 10 10L 10 46L 38 58L 38 22Z"></path></g></g></g><g id="g-root-sy_2_cu_90b9i1gruj9j-stroke" data-item-order="-60104" transform="translate(390, 218)"><g id="sy_2_cu_90b9i1gruj9j-stroke" fill="none" stroke-linecap="round" stroke-linejoin="round" stroke-miterlimit="4" stroke="#ffffff" stroke-width="2"><g><path d="M 10 58L 38 46L 38 10L 10 22L 10 58Z"></path></g></g></g><g id="g-root-sy_2_cu_1_1lynuva1gruknc-stroke" data-item-order="-60102" transform="translate(334, 230)"><g id="sy_2_cu_1_1lynuva1gruknc-stroke" fill="none" stroke-linecap="round" stroke-linejoin="round" stroke-miterlimit="4" stroke="#ffffff" stroke-width="2"><g><path d="M 66 10L 10 10L 10 46L 66 46L 66 10Z"></path></g></g></g><g id="g-root-sy_2_cu_2_18nttl21gruj2h-stroke" data-item-order="-60100" transform="translate(306, 218)"><g id="sy_2_cu_2_18nttl21gruj2h-stroke" fill="none" stroke-linecap="round" stroke-linejoin="round" stroke-miterlimit="4" stroke="#ffffff" stroke-width="2"><g><path d="M 38 22L 10 10L 10 46L 38 58L 38 22Z"></path></g></g></g><g id="g-root-sy_1_cu_vcdb7q1grukne-stroke" data-item-order="-60096" transform="translate(390.000244140625, 146)"><g id="sy_1_cu_vcdb7q1grukne-stroke" fill="none" stroke-linecap="round" stroke-linejoin="round" stroke-miterlimit="4" stroke="#ffffff" stroke-width="2"><g><path d="M 10 58L 38 46L 38 10L 10 22L 10 58Z"></path></g></g></g><g id="g-root-sy_1_cu_1_qn6osm1grvwub-stroke" data-item-order="-60094" transform="translate(334.000244140625, 158)"><g id="sy_1_cu_1_qn6osm1grvwub-stroke" fill="none" stroke-linecap="round" stroke-linejoin="round" stroke-miterlimit="4" stroke="#ffffff" stroke-width="2"><g><path d="M 66 10L 10 10L 10 46L 66 46L 66 10Z"></path></g></g></g><g id="g-root-sy_1_cu_2_dbq6fa1grvyf8-stroke" data-item-order="-60092" transform="translate(306.000244140625, 146)"><g id="sy_1_cu_2_dbq6fa1grvyf8-stroke" fill="none" stroke-linecap="round" stroke-linejoin="round" stroke-miterlimit="4" stroke="#ffffff" stroke-width="2"><g><path d="M 38 22L 10 10L 10 46L 38 58L 38 22Z"></path></g></g></g><g id="g-root-sy_1_cu_3_4g366e1grvz7x-stroke" data-item-order="-60090" transform="translate(306.0000305175781, 86)"><g id="sy_1_cu_3_4g366e1grvz7x-stroke" fill="none" stroke-linecap="round" stroke-linejoin="round" stroke-miterlimit="4" stroke="#ffffff" stroke-width="2"><g><path d="M 38.000169 50L 94.000169 50L 122.000169 38C 122.000169 38 122.530169 10 66.000169 10C 9.470169 10 10.000169 38 10.000169 38L 38.000169 50Z"></path></g></g></g><g id="g-root-tx_dividesd_1cws3ra1grvy18-stroke" data-item-order="0" transform="translate(26, 332)"></g><g id="g-root-ic_shar_dccqo61grrqq7-stroke" data-item-order="0" transform="translate(230, 284)"><g id="ic_shar_dccqo61grrqq7-stroke" fill="none" stroke-linecap="round" stroke-linejoin="round" stroke-miterlimit="4" stroke="#484848" stroke-width="2"><g><path d="M 35 57L 13 57C 11.895431 57 11 56.104568 11 55L 11 13C 11 11.895431 11.895431 11 13 11L 39.580002 11C 40.112469 10.998518 40.623543 11.209428 41 11.586L 48.400002 19C 48.775097 19.374985 48.985886 19.88361 48.986 20.414L 48.986 29M 16.993999 41L 28.993999 41M 20 31L 22 31C 22.552284 31 23 31.447716 23 32L 23 41L 23 41L 19 41L 19 41L 19 32C 19 31.447716 19.447716 31 20 31ZM 31 35L 31 26C 31 25.447716 30.552284 25 30 25L 28 25C 27.447716 25 27 25.447716 27 26L 27 41M 32.993999 46.5C 32.993999 48.985283 35.00872 51 37.493999 51C 39.979282 51 41.993999 48.985283 41.993999 46.5C 41.993999 44.014717 39.979282 42 37.493999 42C 35.00872 42 32.993999 44.014717 32.993999 46.5ZM 47.993999 52.5C 47.993999 54.985283 50.00872 57 52.493999 57C 54.979282 57 56.993999 54.985283 56.993999 52.5C 56.993999 50.014717 54.979282 48 52.493999 48C 50.00872 48 47.993999 50.014717 47.993999 52.5ZM 47.993999 37.5C 47.993999 39.985283 50.00872 42 52.493999 42C 54.979282 42 56.993999 39.985283 56.993999 37.5C 56.993999 35.014717 54.979282 33 52.493999 33C 50.00872 33 47.993999 35.014717 47.993999 37.5ZM 41.344002 44.189999L 48.644001 39.809998M 41.669998 48.169998L 48.318001 50.830002"></path></g></g></g><g id="g-root-ic_2_dcz4li1gryrd8-stroke" data-item-order="0" transform="translate(446, 356)"><g id="ic_2_dcz4li1gryrd8-stroke" fill="none" stroke-linecap="round" stroke-linejoin="round" stroke-miterlimit="4" stroke="#484848" stroke-width="2"><g><path d="M 27.48 49.34C 26.686321 48.020168 26.290478 46.499294 26.34 44.959999L 26.34 43.18C 26.470327 40.891842 25.323666 38.71946 23.360941 37.536095C 21.398216 36.352726 18.941782 36.352726 16.979057 37.536095C 15.016333 38.71946 13.869671 40.891842 14 43.179996L 14 44.959999C 14.049522 46.499294 13.653679 48.020168 12.86 49.34M 14 44.18C 16.366127 44.182392 18.615606 43.152599 20.16 41.360001C 21.715477 43.149189 23.9692 44.177586 26.34 44.18M 25.6 44.16C 25.425673 47.031101 23.046389 49.270302 20.17 49.270302C 17.293612 49.270302 14.914328 47.031101 14.74 44.16M 55.139999 49.34C 54.337681 48.023815 53.941154 46.500324 54 44.959999L 54 43.18C 54.130325 40.891842 52.983665 38.71946 51.020939 37.536095C 49.058216 36.352726 46.60178 36.352726 44.639053 37.536095C 42.676331 38.71946 41.529671 40.891842 41.659996 43.179996L 41.66 44.959999C 41.709522 46.499294 41.313679 48.020168 40.52 49.34M 41.66 44.18C 44.026127 44.182392 46.275608 43.152599 47.82 41.360001C 49.375477 43.149189 51.6292 44.177586 54 44.18M 53.259998 44.16C 53.08567 47.031101 50.70639 49.270302 47.829998 49.270302C 44.953609 49.270302 42.574326 47.031101 42.400002 44.16M 28.34 57C 26.769266 53.93441 23.614574 52.006111 20.170002 52.006111C 16.725428 52.006111 13.570736 53.93441 12 57.000004M 56 57C 54.429268 53.93441 51.274574 52.006111 47.830002 52.006111C 44.385429 52.006111 41.230736 53.93441 39.660004 57.000004M 49 28.98C 49 30.08457 48.104568 30.98 47 30.98L 39 30.98L 33 36.98L 33 30.98L 19 30.98C 17.895432 30.98 17 30.08457 17 28.98L 17 12.98C 17 11.87543 17.895432 10.98 19 10.98L 47 10.98C 48.104568 10.98 49 11.87543 49 12.98ZM 39 17L 43 21L 39 25M 27 17L 23 21L 27 25M 35 17L 31 25"></path></g></g></g><g id="g-root-tx_insightg_v64kcm1grvx8l-stroke" data-item-order="0" transform="translate(38, 296)"></g><g id="g-root-tx_appliess_mahk3q1grvy1a-stroke" data-item-order="0" transform="translate(506, 260)"></g><g id="g-root-tx_userinte_1q88m4m1grvwgb-stroke" data-item-order="0" transform="translate(506, 368)"></g><g id="g-root-tx_allowsna_4hylfq1grvy8a-stroke" data-item-order="0" transform="translate(506, 404)"></g><g id="g-root-tx_enablese_1q6d6va1grvxfy-stroke" data-item-order="0" transform="translate(506, 548)"></g><g id="g-root-ic_net_18nttl21grvx8j-stroke" data-item-order="0" transform="translate(230, 428)"><g id="ic_net_18nttl21grvx8j-stroke" fill="none" stroke-linecap="round" stroke-linejoin="round" stroke-miterlimit="4" stroke="#484848" stroke-width="2"><g><path d="M 18.007999 13L 50.007999 13C 50.007999 13 54.007999 13 54.007999 17L 54.007999 51C 54.007999 51 54.007999 55 50.007999 55L 18.007999 55C 18.007999 55 14.007999 55 14.007999 51L 14.007999 17C 14.007999 17 14.007999 13 18.007999 13M 14 39L 21.310001 30.959999C 22.959269 29.298944 25.454391 28.810856 27.608 29.728001L 30.392 31.062C 32.6185 31.984388 35.16328 31.693317 37.124001 30.292L 40.875999 27.292C 42.987286 25.71822 45.348209 24.510715 47.859997 23.719999L 54 22M 24.007999 29.436001L 24.007999 55M 34.007999 31.532L 34.007999 55M 44.007999 25.326L 44.007999 55M 14.007999 39L 54.007999 39M 35.944 31L 54.007999 31M 14.007999 47L 54.007999 47"></path></g></g></g><g id="g-root-tx_dataanal_8zniti1grvwgf-stroke" data-item-order="0" transform="translate(506, 224)"></g><g id="g-root-ic_view_zs6why1gs8jda-stroke" data-item-order="0" transform="translate(446, 212)"><g id="ic_view_zs6why1gs8jda-stroke" fill="none" stroke-linecap="round" stroke-linejoin="round" stroke-miterlimit="4" stroke="#484848" stroke-width="2"><g><path d="M 28.52 45.063999L 16 45.063999C 13.790861 45.063999 12 43.27314 12 41.063999L 12 16.048C 12 13.838861 13.790861 12.048 16 12.048L 46.018002 12.048C 48.227139 12.048 50.018002 13.838861 50.018002 16.048L 50.018002 29.666M 12 19.860001L 50.02 19.860001M 12 36.468002L 28.736 36.468002M 12 28.177999L 34.021999 28.177999M 27.530001 19.860001L 27.530001 45.063999M 38.662003 19.860001L 38.662003 28.177999M 42.155998 51.632C 47.618256 51.518284 51.955372 47.000343 51.846001 41.538002C 51.955372 36.075653 47.618256 31.557716 42.155998 31.444C 36.693745 31.557716 32.356628 36.075653 32.466 41.538002C 32.356628 47.000343 36.693745 51.518284 42.155998 51.632ZM 56 55.953999L 49 48.672001"></path></g></g></g><g id="g-root-tx_handlesm_40ikm1grvy0w-stroke" data-item-order="0" transform="translate(14, 188)"></g><g id="g-root-tx_createsi_v4953a1grvy88-stroke" data-item-order="0" transform="translate(38, 476)"></g><g id="g-root-ic_2_dhxp1i1h26rcw-stroke" data-item-order="0" transform="translate(230, 140)"><g id="ic_2_dhxp1i1h26rcw-stroke" fill="none" stroke-linecap="round" stroke-linejoin="round" stroke-miterlimit="4" stroke="#484848" stroke-width="2"><g><path d="M 19.5 31.0002C 23.91828 31.0002 27.5 29.56756 27.5 27.80024C 27.5 26.03294 23.91828 24.600239 19.5 24.600239C 15.08172 24.600239 11.5 26.03294 11.5 27.80024C 11.5 29.56756 15.08172 31.0002 19.5 31.0002ZM 11.5 27.79994L 11.5 40.599998C 11.5 42.400002 15.1 43.799999 19.5 43.799999C 23.9 43.799999 27.5 42.400002 27.5 40.599998L 27.5 27.79994M 51.202801 16.746601C 54.030602 16.746601 56.3228 15.50494 56.3228 13.97328C 56.3228 12.4416 54.030602 11.199936 51.202801 11.199936C 48.375198 11.199936 46.082802 12.4416 46.082802 13.97328C 46.082802 15.50494 48.375198 16.746601 51.202801 16.746601ZM 46.082802 13.97338L 46.082802 21.2267C 46.082802 22.720039 48.4296 24.00004 51.202801 24.00004C 53.9762 24.00004 56.3228 22.720039 56.3228 21.2267L 56.3228 13.97338M 51.202801 33.360199C 54.030602 33.360199 56.3228 32.118401 56.3228 30.5868C 56.3228 29.05514 54.030602 27.81348 51.202801 27.81348C 48.375198 27.81348 46.082802 29.05514 46.082802 30.5868C 46.082802 32.118401 48.375198 33.360199 51.202801 33.360199ZM 46.082802 30.587L 46.082802 37.840202C 46.082802 39.333599 48.4296 40.613602 51.202801 40.613602C 53.9762 40.613602 56.3228 39.333599 56.3228 37.840202L 56.3228 30.587M 51.202801 49.5466C 54.030602 49.5466 56.3228 48.305 56.3228 46.773201C 56.3228 45.2416 54.030602 44 51.202801 44C 48.375198 44 46.082802 45.2416 46.082802 46.773201C 46.082802 48.305 48.375198 49.5466 51.202801 49.5466ZM 46.082802 46.773399L 46.082802 54.026798C 46.082802 55.52 48.4296 56.799999 51.202801 56.799999C 53.9762 56.799999 56.3228 55.52 56.3228 54.026798L 56.3228 46.773399M 41.291599 17.4L 37.291599 17.4L 37.291599 50.599998L 41.291599 50.599998M 41.291599 34L 32.291599 34M 11.5 34.262199C 11.5 35.9538 14.959459 37.337601 19.50004 37.337601C 24.0406 37.337601 27.500059 35.9538 27.500059 34.262199"></path></g></g></g><g id="g-root-ic_uplo_18iu0w61grvxtu-stroke" data-item-order="0" transform="translate(446, 500)"><g id="ic_uplo_18iu0w61grvxtu-stroke" fill="none" stroke-linecap="round" stroke-linejoin="round" stroke-miterlimit="4" stroke="#484848" stroke-width="2"><g><path d="M 28.98 57.028L 12.98 57.028C 11.87543 57.028 10.98 56.132568 10.98 55.028L 10.98 13.028C 10.98 11.92343 11.87543 11.028 12.98 11.028L 39.566002 11.028C 40.09639 11.028113 40.605015 11.238901 40.98 11.614L 48.400002 19.028C 48.775097 19.402985 48.985886 19.91161 48.986 20.442001L 48.986 27.028M 16.98 41.028L 28.98 41.028M 19.98 31.028L 21.98 31.028C 22.532284 31.028 22.98 31.475716 22.98 32.028L 22.98 41.028L 22.98 41.028L 18.98 41.028L 18.98 41.028L 18.98 32.028C 18.98 31.475716 19.427715 31.028 19.98 31.028ZM 30.98 35.028L 30.98 26.028C 30.98 25.475716 30.532286 25.028 29.98 25.028L 27.98 25.028C 27.427715 25.028 26.98 25.475716 26.98 26.028L 26.98 41.028M 32.98 45.028C 32.980003 51.655418 38.352585 57.028 44.98 57.028C 51.607418 57.028 56.98 51.655418 56.98 45.028C 56.98 38.400581 51.607418 33.028 44.98 33.028C 38.352585 33.028 32.980003 38.400581 32.980003 45.028ZM 44.98 51.028L 44.98 39.028M 44.98 39.028L 40.48 43.528M 44.98 39.028L 49.48 43.528"></path></g></g></g><g id="g-root-tx_dataprep_1luaj9i1grvw8x-stroke" data-item-order="0" transform="translate(26, 152)"></g><g id="g-root-tx_exportop_18fpngm1grvwnb-stroke" data-item-order="0" transform="translate(506, 512)"></g><g id="g-root-tx_analysei_92qo061h2b0uh-stroke" data-item-order="0" transform="translate(266, 38)"></g><g id="g-root-tx_visualan_htf3t21grvwnd-stroke" data-item-order="0" transform="translate(74, 440)"></g></g></g></svg>